<?xml version="1.0" standalone="no"?>
<!DOCTYPE svg PUBLIC "-//W3C//DTD SVG 1.1//EN" "http://www.w3.org/Graphics/SVG/1.1/DTD/svg11.dtd" >
<svg xmlns="http://www.w3.org/2000/svg">
<metadata>Generated by IcoMoon</metadata>
<defs>
<font id="mvta" horiz-adv-x="1024">
<font-face units-per-em="1024" ascent="960" descent="-64" />
<missing-glyph horiz-adv-x="1024" />
<glyph unicode="&#x20;" horiz-adv-x="512" d="" />
<glyph unicode="&#xe900;" glyph-name="minus" d="M0 438.857c0 47.129 38.205 85.335 85.335 85.335h853.33c47.131 0 85.335-38.205 85.335-85.335s-38.203-85.335-85.335-85.335h-853.33c-47.129 0-85.335 38.205-85.335 85.335z" />
<glyph unicode="&#xe901;" glyph-name="plus" d="M512.001 950.856c47.128 0 85.333-38.205 85.333-85.333v-853.333c0-47.13-38.205-85.333-85.333-85.333s-85.333 38.204-85.333 85.333v853.333c0 47.128 38.205 85.333 85.333 85.333zM0.001 438.856c0 47.128 38.205 85.333 85.333 85.333h853.333c47.13 0 85.333-38.205 85.333-85.333s-38.204-85.333-85.333-85.333h-853.333c-47.128 0-85.333 38.205-85.333 85.333z" />
<glyph unicode="&#xe902;" glyph-name="eye" d="M17.068 438.856c0.087 0.191 0.179 0.391 0.273 0.6 1.16 2.533 2.921 6.277 5.292 11.061 4.744 9.569 11.933 23.285 21.662 39.768 19.466 32.98 49.053 76.943 89.512 120.879 80.925 87.883 204.87 175.201 378.191 175.201s297.265-87.317 378.191-175.201c40.459-43.937 70.046-87.9 89.513-120.879 9.729-16.482 16.916-30.198 21.661-39.768 2.373-4.784 4.132-8.528 5.291-11.061 0.095-0.209 0.186-0.409 0.274-0.6-0.088-0.191-0.179-0.391-0.274-0.6-1.16-2.533-2.92-6.277-5.291-11.061-4.745-9.569-11.932-23.285-21.661-39.768-19.469-32.98-49.054-76.944-89.513-120.879-80.925-87.883-204.869-175.201-378.191-175.201s-297.265 87.317-378.191 175.201c-40.459 43.936-70.046 87.9-89.512 120.879-9.729 16.482-16.918 30.198-21.662 39.768-2.372 4.784-4.132 8.528-5.292 11.061-0.096 0.209-0.186 0.409-0.273 0.6zM1015.85 438.856c7.501 3.188 7.5 3.192 7.497 3.198l-0.007 0.018-0.12 0.28-0.356 0.813c-0.313 0.707-0.773 1.739-1.387 3.080-1.226 2.676-3.058 6.572-5.508 11.514-4.899 9.881-12.276 23.951-22.228 40.812-19.896 33.706-50.14 78.657-91.559 123.636-82.825 89.946-210.806 180.458-390.181 180.458-179.373 0-307.356-90.513-390.181-180.458-41.417-44.979-71.662-89.93-91.559-123.636-9.953-16.861-17.328-30.931-22.228-40.812-2.45-4.942-4.282-8.838-5.508-11.514-0.613-1.34-1.075-2.373-1.387-3.080l-0.356-0.813-0.094-0.218-0.026-0.062-0.008-0.018c-0.002-0.006-0.004-0.010 7.497-3.198l-7.501 3.188c-0.866-2.038-0.866-4.339 0-6.375l7.501 3.188c-7.501-3.188-7.499-3.192-7.497-3.198l0.008-0.019 0.026-0.061 0.094-0.218 0.356-0.813c0.312-0.707 0.773-1.741 1.387-3.080 1.226-2.676 3.058-6.572 5.508-11.514 4.899-9.881 12.276-23.951 22.228-40.812 19.896-33.706 50.142-78.659 91.559-123.636 82.825-89.946 210.808-180.458 390.181-180.458 179.375 0 307.356 90.513 390.181 180.458 41.418 44.977 71.662 89.93 91.559 123.636 9.952 16.861 17.329 30.931 22.228 40.812 2.449 4.942 4.283 8.838 5.508 11.514 0.613 1.338 1.075 2.373 1.387 3.080l0.356 0.813 0.094 0.218 0.026 0.061 0.007 0.019c0.003 0.006 0.004 0.010-7.497 3.198zM1015.85 438.856l7.501 3.188c0.865-2.038 0.865-4.339 0-6.375l-7.501 3.188zM511.999 583.13c-78.914 0-143.005-64.529-143.005-144.274s64.091-144.274 143.005-144.274c78.914 0 143.005 64.529 143.005 144.274s-64.091 144.274-143.005 144.274zM352.693 438.856c0 88.618 71.259 160.576 159.306 160.576s159.306-71.957 159.306-160.576c0-88.619-71.259-160.576-159.306-160.576s-159.306 71.956-159.306 160.576z" />
<glyph unicode="&#xe904;" glyph-name="check" d="M981.155 786.106c57.128-57.129 57.128-149.75 0-206.88l-487.62-487.618c-57.128-57.128-149.751-57.128-206.879 0l-243.81 243.81c-57.128 57.128-57.128 149.751 0 206.879s149.75 57.128 206.88 0l140.37-140.37 384.178 384.179c57.129 57.128 149.751 57.128 206.88 0z" />
<glyph unicode="&#xe905;" glyph-name="search" d="M463.226 816.761c181.78 0 329.145-147.362 329.145-329.143 0-88.37-34.831-168.605-91.502-227.731-1.812-1.44-3.562-2.998-5.238-4.674s-3.234-3.425-4.674-5.238c-59.126-56.673-139.361-91.504-227.731-91.504-181.78 0-329.143 147.365-329.143 329.147s147.362 329.143 329.143 329.143zM822.36 214.689c57.673 75.773 91.911 170.352 91.911 272.929 0 249.106-201.938 451.047-451.045 451.047s-451.048-201.941-451.048-451.047c0-249.107 201.941-451.046 451.048-451.046 102.576 0 197.156 34.238 272.927 91.919l171.593-171.593c23.801-23.801 62.398-23.801 86.199 0 23.801 23.808 23.801 62.398 0 86.199l-171.586 171.593z" />
<glyph unicode="&#xe906;" glyph-name="hamburger" d="M0 737.524c0 28.277 22.923 51.2 51.2 51.2h921.6c28.276 0 51.2-22.923 51.2-51.2s-22.924-51.2-51.2-51.2h-921.6c-28.277 0-51.2 22.923-51.2 51.2zM0 438.857c0 28.277 22.923 51.2 51.2 51.2h921.6c28.276 0 51.2-22.923 51.2-51.2s-22.924-51.2-51.2-51.2h-921.6c-28.277 0-51.2 22.924-51.2 51.2zM0 140.191c0 28.276 22.923 51.2 51.2 51.2h921.6c28.276 0 51.2-22.924 51.2-51.2s-22.924-51.2-51.2-51.2h-921.6c-28.277 0-51.2 22.924-51.2 51.2z" />
<glyph unicode="&#xe907;" glyph-name="close" d="M11.536 939.321c15.381 15.381 40.318 15.381 55.698 0l444.766-444.766 444.763 444.766c15.384 15.381 40.322 15.381 55.706 0 15.376-15.381 15.376-40.318 0-55.698l-444.77-444.766 444.77-444.763c15.376-15.384 15.376-40.322 0-55.706-15.384-15.376-40.322-15.376-55.706 0l-444.763 444.77-444.766-444.77c-15.381-15.376-40.318-15.376-55.698 0-15.381 15.384-15.381 40.322 0 55.706l444.766 444.763-444.766 444.766c-15.381 15.381-15.381 40.318 0 55.698z" />
<glyph unicode="&#xe908;" glyph-name="chevron-up" d="M27.264 163.575c36.355-36.353 95.297-36.353 131.651 0l353.085 353.086 353.086-353.086c36.352-36.353 95.298-36.353 131.65 0s36.352 95.297 0 131.651l-418.911 418.911c-36.353 36.355-95.295 36.355-131.65 0l-418.911-418.911c-36.353-36.355-36.353-95.297 0-131.651z" />
<glyph unicode="&#xe909;" glyph-name="exclamation" d="M508.289 950.856c16.98 0 30.747-13.765 30.747-30.747v-707.161c0-16.981-13.765-30.747-30.747-30.747s-30.747 13.765-30.747 30.747v707.161c0 16.981 13.765 30.747 30.747 30.747zM449.92-11.651c0 33.962 27.531 61.492 61.492 61.492h1.176c33.961 0 61.492-27.53 61.492-61.492 0-33.959-27.531-61.492-61.492-61.492h-1.176c-33.961 0-61.492 27.533-61.492 61.492z" />
<glyph unicode="&#xe90a;" glyph-name="location" d="M512.001 836.405c-81.627 0-159.881-32.34-217.552-89.855-57.667-57.509-90.035-135.477-90.035-216.741 0-113.771 78.004-236.259 167.9-337.115 43.596-48.911 87.371-89.857 120.311-118.602 7.004-6.112 13.499-11.657 19.376-16.59 5.878 4.933 12.373 10.478 19.377 16.59 32.939 28.745 76.714 69.69 120.31 118.602 89.897 100.856 167.902 223.344 167.902 337.115 0 81.263-32.367 159.231-90.034 216.741-57.673 57.515-135.927 89.855-217.554 89.855zM512.001-15.925c-34.276-45.827-34.288-45.815-34.302-45.804l-0.127 0.092-0.286 0.217-0.96 0.726c-0.81 0.613-1.958 1.494-3.419 2.621-2.922 2.26-7.106 5.528-12.37 9.752-10.523 8.43-25.393 20.67-43.166 36.178-35.462 30.943-82.891 75.27-130.499 128.685-92.511 103.791-196.913 254.171-196.913 413.267 0 111.72 44.502 218.832 123.667 297.781 79.16 78.945 186.491 123.267 298.373 123.267 111.88 0 219.214-44.322 298.375-123.267 79.161-78.95 123.666-186.062 123.666-297.781 0-159.095-104.404-309.474-196.916-413.267-47.607-53.415-95.036-97.743-130.498-128.685-17.773-15.508-32.644-27.749-43.166-36.178-5.264-4.223-9.447-7.491-12.37-9.752-1.462-1.128-2.609-2.009-3.419-2.621l-1.339-1.013c-0.013-0.011-0.059-0.046-34.336 45.781zM512.001-15.925l34.276-45.827c-20.323-15.2-48.255-15.183-68.577 0.023l34.302 45.804zM512.001 609.016c-44.097 0-79.578-35.609-79.578-79.207s35.481-79.207 79.578-79.207c44.097 0 79.579 35.609 79.579 79.207s-35.481 79.207-79.579 79.207zM317.97 529.808c0 107.102 87.018 193.66 194.031 193.66 107.015 0 194.033-86.558 194.033-193.66s-87.018-193.659-194.033-193.659c-107.013 0-194.031 86.558-194.031 193.659z" />
<glyph unicode="&#xe90b;" glyph-name="exclamation-border" d="M512 857.766c-231.357 0-418.909-187.552-418.909-418.909 0-231.359 187.552-418.909 418.909-418.909 231.359 0 418.909 187.55 418.909 418.909 0 231.357-187.55 418.909-418.909 418.909zM0 438.857c0 282.77 229.23 512 512 512 282.768 0 512-229.23 512-512 0-282.768-229.232-512-512-512-282.77 0-512 229.232-512 512zM512 671.584c25.707 0 46.545-20.839 46.545-46.545v-279.273c0-25.707-20.838-46.545-46.545-46.545s-46.545 20.838-46.545 46.545v279.273c0 25.706 20.838 46.545 46.545 46.545zM465.455 202.141c0 25.707 20.838 46.545 46.545 46.545h0.465c25.707 0 46.545-20.838 46.545-46.545s-20.838-46.545-46.545-46.545h-0.465c-25.707 0-46.545 20.838-46.545 46.545z" />
<glyph unicode="&#xe90c;" glyph-name="close-heavy" d="M47.284 903.573c14.282 14.282 37.438 14.282 51.719 0l412.998-412.998 412.994 412.998c14.284 14.282 37.442 14.282 51.726 0 14.278-14.282 14.278-37.438 0-51.719l-413.001-412.998 413.001-412.994c14.278-14.284 14.278-37.442 0-51.726-14.284-14.278-37.442-14.278-51.726 0l-412.994 413.001-412.998-413.001c-14.282-14.278-37.438-14.278-51.719 0-14.282 14.284-14.282 37.442 0 51.726l412.998 412.994-412.998 412.998c-14.282 14.282-14.282 37.438 0 51.719zM21.423 929.434c28.564 28.564 74.876 28.564 103.44 0l387.137-387.137 387.139 387.137c28.562 28.564 74.877 28.564 103.439 0v0c28.562-28.564 28.562-74.876 0-103.44l-387.137-387.137 387.137-387.139c28.562-28.562 28.562-74.877 0-103.439v0c-28.562-28.562-74.877-28.562-103.439 0l-387.139 387.137-387.137-387.137c-28.564-28.562-74.876-28.562-103.44 0v0c-28.564 28.562-28.564 74.877 0 103.439v0l387.137 387.139-387.137 387.137c-28.564 28.564-28.564 74.876 0 103.44zM527.15 438.856c0 9.7 3.853 19.002 10.711 25.86-14.282-14.282-37.438-14.282-51.719 0 14.282-14.282 14.282-37.438 0-51.719 6.858 6.858 16.16 10.711 25.86 10.711s19.002-3.853 25.86-10.711c-6.858 6.858-10.711 16.16-10.711 25.86z" />
<glyph unicode="&#xe90d;" glyph-name="chevron-left" d="M789.209 920.865c-39.99 39.99-104.826 39.99-144.816 0l-409.601-409.601c-39.99-39.99-39.99-104.826 0-144.816l409.601-409.601c39.99-39.986 104.826-39.986 144.816 0 39.989 39.99 39.989 104.826 0 144.816l-337.194 337.193 337.194 337.193c39.989 39.99 39.989 104.826 0 144.816z" />
<glyph unicode="&#xe90e;" glyph-name="chevron-right" d="M234.791 920.865c39.99 39.99 104.826 39.99 144.816 0l409.601-409.601c39.989-39.99 39.989-104.826 0-144.816l-409.601-409.601c-39.99-39.986-104.826-39.986-144.816 0-39.99 39.99-39.99 104.826 0 144.816l337.194 337.193-337.194 337.193c-39.99 39.99-39.99 104.826 0 144.816z" />
<glyph unicode="&#xe90f;" glyph-name="creed" d="M204.799 132.404h-204.799v-204.483h204.799v204.483zM409.491 541.15h204.8v-204.373h-204.8v-204.269h-204.692v204.269h204.692v204.373zM206.979 949.793h817.021v-815.323h-206.978v608.775h-610.043v206.548z" />
<glyph unicode="&#xe910;" glyph-name="blok-party" d="M292.571 950.857h146.286v-146.286h-146.286v146.286zM877.714 512h146.286v-146.286h-146.286v146.286zM877.714 73.143h146.286v-146.286h-146.286v146.286zM731.429 73.143h146.286v-146.286h-146.286v146.286zM585.143 73.143h146.286v-146.286h-146.286v146.286zM438.857 73.143h146.286v-146.286h-146.286v146.286zM292.571 73.143h146.286v-146.286h-146.286v146.286zM146.286 73.143h146.286v-146.286h-146.286v146.286zM0 73.143h146.286v-146.286h-146.286v146.286zM877.714 219.428h146.286v-146.286h-146.286v146.286zM731.429 219.428h146.286v-146.286h-146.286v146.286zM585.143 219.428h146.286v-146.286h-146.286v146.286zM438.857 219.428h146.286v-146.286h-146.286v146.286zM292.571 219.428h146.286v-146.286h-146.286v146.286zM0 950.857h146.286v-146.286h-146.286v146.286zM0 804.571h146.286v-146.286h-146.286v146.286zM0 512h146.286v-146.286h-146.286v146.286zM0 365.714h146.286v-146.286h-146.286v146.286zM0 219.428h146.286v-146.286h-146.286v146.286zM877.714 365.714h146.286v-146.286h-146.286v146.286zM585.143 365.714h146.286v-146.286h-146.286v146.286zM438.857 365.714h146.286v-146.286h-146.286v146.286zM146.286 365.714h146.286v-146.286h-146.286v146.286zM585.143 512h146.286v-146.286h-146.286v146.286zM292.571 512h146.286v-146.286h-146.286v146.286zM146.286 512h146.286v-146.286h-146.286v146.286zM877.714 658.286h146.286v-146.286h-146.286v146.286zM585.143 658.286h146.286v-146.286h-146.286v146.286zM438.857 658.286h146.286v-146.286h-146.286v146.286zM292.571 658.286h146.286v-146.286h-146.286v146.286zM146.286 658.286h146.286v-146.286h-146.286v146.286zM877.714 804.571h146.286v-146.286h-146.286v146.286zM877.714 950.857h146.286v-146.286h-146.286v146.286zM0 658.286h146.286v-146.286h-146.286v146.286zM146.286 804.571h146.286v-146.286h-146.286v146.286zM731.429 950.857h146.286v-146.286h-146.286v146.286zM585.143 950.857h146.286v-146.286h-146.286v146.286zM438.857 950.857h146.286v-146.286h-146.286v146.286zM146.286 950.857h146.286v-146.286h-146.286v146.286z" />
<glyph unicode="&#xe911;" glyph-name="chevron-down" d="M27.265 714.138c36.354 36.354 95.296 36.354 131.651 0l353.085-353.085 353.085 353.085c36.355 36.354 95.298 36.354 131.651 0s36.352-95.296 0-131.651l-418.909-418.91c-36.355-36.354-95.296-36.354-131.651 0l-418.91 418.91c-36.354 36.355-36.354 95.297 0 131.651z" />
<glyph unicode="&#xe912;" glyph-name="arrow-left" d="M533.295 942.034c11.763-11.762 11.763-30.831 0-42.593l-460.583-460.585 460.583-460.587c11.763-11.758 11.763-30.831 0-42.589-11.758-11.763-30.831-11.763-42.589 0l-481.884 481.882c-11.762 11.758-11.762 30.831 0 42.589l481.884 481.883c11.758 11.762 30.831 11.762 42.589 0zM0.001 438.857c0 16.634 13.484 30.118 30.118 30.118h963.764c16.634 0 30.118-13.483 30.118-30.118s-13.483-30.118-30.118-30.118h-963.764c-16.633 0-30.118 13.483-30.118 30.118z" />
<glyph unicode="&#xe913;" glyph-name="arrow-right" d="M490.705-64.32c-11.764 11.758-11.764 30.831 0 42.589l460.583 460.588-460.583 460.586c-11.764 11.762-11.764 30.831 0 42.593 11.758 11.762 30.831 11.762 42.589 0l481.883-481.885c11.763-11.758 11.763-30.831 0-42.589l-481.883-481.883c-11.758-11.763-30.831-11.763-42.589 0zM1023.999 438.857c0-16.634-13.483-30.118-30.118-30.118h-963.764c-16.634 0-30.118 13.483-30.118 30.118s13.484 30.118 30.118 30.118h963.764c16.634 0 30.118-13.483 30.118-30.118z" />
<glyph unicode="&#xe914;" glyph-name="divider" d="M484.346-73.143v1024h55.309v-1024h-55.309z" />
<glyph unicode="&#xe915;" glyph-name="external-link" d="M725.333 396.19v-256c0-11.776-4.736-22.4-12.501-30.165s-18.389-12.501-30.165-12.501h-469.333c-11.776 0-22.4 4.736-30.165 12.501s-12.501 18.389-12.501 30.165v469.333c0 11.776 4.736 22.4 12.501 30.165s18.389 12.501 30.165 12.501h256c23.552 0 42.667 19.115 42.667 42.667s-19.115 42.667-42.667 42.667h-256c-35.328 0-67.413-14.379-90.496-37.504s-37.504-55.168-37.504-90.496v-469.333c0-35.328 14.379-67.413 37.504-90.496s55.168-37.504 90.496-37.504h469.333c35.328 0 67.413 14.379 90.496 37.504s37.504 55.168 37.504 90.496v256c0 23.552-19.115 42.667-42.667 42.667s-42.667-19.115-42.667-42.667zM456.832 323.358l396.501 396.501v-153.003c0-23.552 19.115-42.667 42.667-42.667s42.667 19.115 42.667 42.667v256c0 5.803-1.152 11.307-3.243 16.341s-5.163 9.728-9.216 13.781c-0.043 0.043-0.043 0.043-0.085 0.085-3.925 3.925-8.619 7.083-13.781 9.216-5.035 2.091-10.539 3.243-16.341 3.243h-256c-23.552 0-42.667-19.115-42.667-42.667s19.115-42.667 42.667-42.667h153.003l-396.501-396.501c-16.683-16.683-16.683-43.691 0-60.331s43.691-16.683 60.331 0z" />
<glyph unicode="&#xe916;" glyph-name="facebook" horiz-adv-x="602" d="M548 944v-150.857h-89.714c-70.286 0-83.429-33.714-83.429-82.286v-108h167.429l-22.286-169.143h-145.143v-433.714h-174.857v433.714h-145.714v169.143h145.714v124.571c0 144.571 88.571 223.429 217.714 223.429 61.714 0 114.857-4.571 130.286-6.857z" />
<glyph unicode="&#xe917;" glyph-name="instagram" horiz-adv-x="878" d="M585.143 438.857c0 80.571-65.714 146.286-146.286 146.286s-146.286-65.714-146.286-146.286 65.714-146.286 146.286-146.286 146.286 65.714 146.286 146.286zM664 438.857c0-124.571-100.571-225.143-225.143-225.143s-225.143 100.571-225.143 225.143 100.571 225.143 225.143 225.143 225.143-100.571 225.143-225.143zM725.714 673.143c0-29.143-23.429-52.571-52.571-52.571s-52.571 23.429-52.571 52.571 23.429 52.571 52.571 52.571 52.571-23.429 52.571-52.571zM438.857 798.857c-64 0-201.143 5.143-258.857-17.714-20-8-34.857-17.714-50.286-33.143s-25.143-30.286-33.143-50.286c-22.857-57.714-17.714-194.857-17.714-258.857s-5.143-201.143 17.714-258.857c8-20 17.714-34.857 33.143-50.286s30.286-25.143 50.286-33.143c57.714-22.857 194.857-17.714 258.857-17.714s201.143-5.143 258.857 17.714c20 8 34.857 17.714 50.286 33.143s25.143 30.286 33.143 50.286c22.857 57.714 17.714 194.857 17.714 258.857s5.143 201.143-17.714 258.857c-8 20-17.714 34.857-33.143 50.286s-30.286 25.143-50.286 33.143c-57.714 22.857-194.857 17.714-258.857 17.714zM877.714 438.857c0-60.571 0.571-120.571-2.857-181.143-3.429-70.286-19.429-132.571-70.857-184s-113.714-67.429-184-70.857c-60.571-3.429-120.571-2.857-181.143-2.857s-120.571-0.571-181.143 2.857c-70.286 3.429-132.571 19.429-184 70.857s-67.429 113.714-70.857 184c-3.429 60.571-2.857 120.571-2.857 181.143s-0.571 120.571 2.857 181.143c3.429 70.286 19.429 132.571 70.857 184s113.714 67.429 184 70.857c60.571 3.429 120.571 2.857 181.143 2.857s120.571 0.571 181.143-2.857c70.286-3.429 132.571-19.429 184-70.857s67.429-113.714 70.857-184c3.429-60.571 2.857-120.571 2.857-181.143z" />
<glyph unicode="&#xe918;" glyph-name="linkedin" horiz-adv-x="878" d="M199.429 593.714v-566.286h-188.571v566.286h188.571zM211.429 768.571c0.571-54.286-40.571-97.714-106.286-97.714v0h-1.143c-63.429 0-104 43.429-104 97.714 0 55.429 42.286 97.714 106.286 97.714 64.571 0 104.571-42.286 105.143-97.714zM877.714 352v-324.571h-188v302.857c0 76-27.429 128-95.429 128-52 0-82.857-34.857-96.571-68.571-4.571-12.571-6.286-29.143-6.286-46.286v-316h-188c2.286 513.143 0 566.286 0 566.286h188v-82.286h-1.143c24.571 38.857 69.143 95.429 170.857 95.429 124 0 216.571-81.143 216.571-254.857z" />
<glyph unicode="&#xe919;" glyph-name="rebel" horiz-adv-x="1020" d="M10.857 451.428c5.714 163.429 89.143 314.286 240.571 413.714 0.571 0 4 1.143 2.286-1.714-12-11.429-229.714-268-29.143-467.429 102.857-102.286 185.714-5.143 185.714-5.143 79.429 103.429-1.143 260-1.143 260-20.571 51.429-94.286 82.857-94.286 82.857l59.429 65.714c50.286-21.714 89.143-80 89.143-80 1.714 61.143-45.143 126.857-45.143 126.857l92 104.571 91.429-103.429c-42.286-59.429-45.143-129.143-45.143-129.143 28.571 47.429 89.714 81.143 89.714 81.143l58.857-65.714c-56.571-18.286-93.714-82.286-93.714-82.286-32.571-58.857-56-184.571 1.143-262.857 66.857-92 181.143 5.714 181.143 5.714 212 189.714-21.714 464.571-21.714 464.571-12.571 11.429 1.714 5.714 1.714 5.714 103.429-75.429 236.571-174.286 240-422.857 4-300.571-206.286-514.857-500.571-514.857-287.429 0-510.857 240-502.286 524.571z" />
<glyph unicode="&#xe91a;" glyph-name="twitter" horiz-adv-x="951" d="M925.714 717.714c-25.143-36.571-56.571-69.143-92.571-95.429 0.571-8 0.571-16 0.571-24 0-244-185.714-525.143-525.143-525.143-104.571 0-201.714 30.286-283.429 82.857 14.857-1.714 29.143-2.286 44.571-2.286 86.286 0 165.714 29.143 229.143 78.857-81.143 1.714-149.143 54.857-172.571 128 11.429-1.714 22.857-2.857 34.857-2.857 16.571 0 33.143 2.286 48.571 6.286-84.571 17.143-148 91.429-148 181.143v2.286c24.571-13.714 53.143-22.286 83.429-23.429-49.714 33.143-82.286 89.714-82.286 153.714 0 34.286 9.143 65.714 25.143 93.143 90.857-112 227.429-185.143 380.571-193.143-2.857 13.714-4.571 28-4.571 42.286 0 101.714 82.286 184.571 184.571 184.571 53.143 0 101.143-22.286 134.857-58.286 41.714 8 81.714 23.429 117.143 44.571-13.714-42.857-42.857-78.857-81.143-101.714 37.143 4 73.143 14.286 106.286 28.571z" />
<glyph unicode="&#xe91b;" glyph-name="youtube" d="M406.286 306.286l276.571 142.857-276.571 144.571v-287.429zM512 798.857c215.429 0 358.286-10.286 358.286-10.286 20-2.286 64-2.286 102.857-43.429 0 0 31.429-30.857 40.571-101.714 10.857-82.857 10.286-165.714 10.286-165.714v-77.714s0.571-82.857-10.286-165.714c-9.143-70.286-40.571-101.714-40.571-101.714-38.857-40.571-82.857-40.571-102.857-42.857 0 0-142.857-10.857-358.286-10.857v0c-266.286 2.286-348 10.286-348 10.286-22.857 4-74.286 2.857-113.143 43.429 0 0-31.429 31.429-40.571 101.714-10.857 82.857-10.286 165.714-10.286 165.714v77.714s-0.571 82.857 10.286 165.714c9.143 70.857 40.571 101.714 40.571 101.714 38.857 41.143 82.857 41.143 102.857 43.429 0 0 142.857 10.286 358.286 10.286v0z" />
<glyph unicode="&#xf003;" glyph-name="envelope" d="M950.857 91.428v438.857c-12-13.714-25.143-26.286-39.429-37.714-81.714-62.857-164-126.857-243.429-193.143-42.857-36-96-80-155.429-80h-1.143c-59.429 0-112.571 44-155.429 80-79.429 66.286-161.714 130.286-243.429 193.143-14.286 11.429-27.429 24-39.429 37.714v-438.857c0-9.714 8.571-18.286 18.286-18.286h841.143c9.714 0 18.286 8.571 18.286 18.286zM950.857 692c0 14.286 3.429 39.429-18.286 39.429h-841.143c-9.714 0-18.286-8.571-18.286-18.286 0-65.143 32.571-121.714 84-162.286 76.571-60 153.143-120.571 229.143-181.143 30.286-24.571 85.143-77.143 125.143-77.143h1.143c40 0 94.857 52.571 125.143 77.143 76 60.571 152.571 121.143 229.143 181.143 37.143 29.143 84 92.571 84 141.143zM1024 713.143v-621.714c0-50.286-41.143-91.429-91.429-91.429h-841.143c-50.286 0-91.429 41.143-91.429 91.429v621.714c0 50.286 41.143 91.429 91.429 91.429h841.143c50.286 0 91.429-41.143 91.429-91.429z" />
<glyph unicode="&#xf019;" glyph-name="download" horiz-adv-x="951" d="M731.429 182.857c0 20-16.571 36.571-36.571 36.571s-36.571-16.571-36.571-36.571 16.571-36.571 36.571-36.571 36.571 16.571 36.571 36.571zM877.714 182.857c0 20-16.571 36.571-36.571 36.571s-36.571-16.571-36.571-36.571 16.571-36.571 36.571-36.571 36.571 16.571 36.571 36.571zM950.857 310.857v-182.857c0-30.286-24.571-54.857-54.857-54.857h-841.143c-30.286 0-54.857 24.571-54.857 54.857v182.857c0 30.286 24.571 54.857 54.857 54.857h265.714l77.143-77.714c21.143-20.571 48.571-32 77.714-32s56.571 11.429 77.714 32l77.714 77.714h265.143c30.286 0 54.857-24.571 54.857-54.857zM765.143 636c5.714-13.714 2.857-29.714-8-40l-256-256c-6.857-7.429-16.571-10.857-25.714-10.857s-18.857 3.429-25.714 10.857l-256 256c-10.857 10.286-13.714 26.286-8 40 5.714 13.143 18.857 22.286 33.714 22.286h146.286v256c0 20 16.571 36.571 36.571 36.571h146.286c20 0 36.571-16.571 36.571-36.571v-256h146.286c14.857 0 28-9.143 33.714-22.286z" />
<glyph unicode="&#xf02f;" glyph-name="print" horiz-adv-x="951" d="M219.429 73.143h512v146.286h-512v-146.286zM219.429 438.857h512v219.429h-91.429c-30.286 0-54.857 24.571-54.857 54.857v91.429h-365.714v-365.714zM877.714 402.286c0 20-16.571 36.571-36.571 36.571s-36.571-16.571-36.571-36.571 16.571-36.571 36.571-36.571 36.571 16.571 36.571 36.571zM950.857 402.286v-237.714c0-9.714-8.571-18.286-18.286-18.286h-128v-91.429c0-30.286-24.571-54.857-54.857-54.857h-548.571c-30.286 0-54.857 24.571-54.857 54.857v91.429h-128c-9.714 0-18.286 8.571-18.286 18.286v237.714c0 60 49.714 109.714 109.714 109.714h36.571v310.857c0 30.286 24.571 54.857 54.857 54.857h384c30.286 0 72-17.143 93.714-38.857l86.857-86.857c21.714-21.714 38.857-63.429 38.857-93.714v-146.286h36.571c60 0 109.714-49.714 109.714-109.714z" />
<glyph unicode="&#xf1c1;" glyph-name="pdf" horiz-adv-x="878" d="M838.857 733.714c21.143-21.143 38.857-63.429 38.857-93.714v-658.286c0-30.286-24.571-54.857-54.857-54.857h-768c-30.286 0-54.857 24.571-54.857 54.857v914.286c0 30.286 24.571 54.857 54.857 54.857h512c30.286 0 72.571-17.714 93.714-38.857zM585.143 873.143v-214.857h214.857c-3.429 9.714-8.571 19.429-12.571 23.429l-178.857 178.857c-4 4-13.714 9.143-23.429 12.571zM804.571 0v585.143h-237.714c-30.286 0-54.857 24.571-54.857 54.857v237.714h-438.857v-877.714h731.429zM510.857 338.857c14.286-11.429 30.286-21.714 48-32 24 2.857 46.286 4 66.857 4 38.286 0 86.857-4.571 101.143-28 4-5.714 7.429-16 1.143-29.714-0.571-0.571-1.143-1.714-1.714-2.286v-0.571c-1.714-10.286-10.286-21.714-40.571-21.714-36.571 0-92 16.571-140 41.714-79.429-8.571-162.857-26.286-224-47.429-58.857-100.571-104-149.714-138.286-149.714-5.714 0-10.857 1.143-16 4l-13.714 6.857c-1.714 0.571-2.286 1.714-3.429 2.857-2.857 2.857-5.143 9.143-3.429 20.571 5.714 26.286 36.571 70.286 107.429 107.429 4.571 2.857 10.286 1.143 13.143-3.429 0.571-0.571 1.143-1.714 1.143-2.286 17.714 29.143 38.286 66.286 61.143 112.571 25.714 51.429 45.714 101.714 59.429 149.714-18.286 62.286-24 126.286-13.714 164 4 14.286 12.571 22.857 24 22.857h12.571c8.571 0 15.429-2.857 20-8.571 6.857-8 8.571-20.571 5.143-38.857-0.571-1.714-1.143-3.429-2.286-4.571 0.571-1.714 0.571-2.857 0.571-4.571v-17.143c-0.571-36-1.143-70.286-8-109.714 20-60 49.714-108.571 83.429-136zM181.714 104c17.143 8 41.714 32.571 78.286 90.286-42.857-33.143-69.714-70.857-78.286-90.286zM409.143 629.714c-5.714-16-5.714-43.429-1.143-75.429 1.714 9.143 2.857 17.714 4 25.143 1.143 9.714 2.857 17.714 4 24.571 0.571 1.714 1.143 2.857 2.286 4.571-0.571 0.571-0.571 1.714-1.143 2.857-0.571 10.286-4 16.571-7.429 20.571 0-1.143-0.571-1.714-0.571-2.286zM338.286 252c50.286 20 106.286 36 162.286 46.286-5.714 4.571-11.429 8.571-16.571 13.143-28 24.571-53.143 58.857-72.571 100.571-10.857-34.857-26.857-72-47.429-112.571-8.571-16-17.143-32-25.714-47.429zM707.429 261.143c-2.857 2.857-17.714 13.714-80 13.714 28-10.286 53.714-16 70.857-16 5.143 0 8 0 10.286 0.571 0 0.571-0.571 1.143-1.143 1.714z" />
</font>
</defs>
</svg>
